<svg viewBox="0 0 800 300" xmlns="http://www.w3.org/2000/svg">
  <defs>
    <linearGradient id="inputGrad" x1="0%" y1="0%" x2="0%" y2="100%">
      <stop offset="0%" style="stop-color:#3b82f6;stop-opacity:1" />
      <stop offset="100%" style="stop-color:#2563eb;stop-opacity:1" />
    </linearGradient>
    <linearGradient id="sampleGrad" x1="0%" y1="0%" x2="0%" y2="100%">
      <stop offset="0%" style="stop-color:#ec4899;stop-opacity:1" />
      <stop offset="100%" style="stop-color:#db2777;stop-opacity:1" />
    </linearGradient>
    <linearGradient id="outputGrad" x1="0%" y1="0%" x2="0%" y2="100%">
      <stop offset="0%" style="stop-color:#14b8a6;stop-opacity:1" />
      <stop offset="100%" style="stop-color:#0d9488;stop-opacity:1" />
    </linearGradient>
    <filter id="shadow" x="-20%" y="-20%" width="140%" height="140%">
      <feDropShadow dx="0" dy="4" stdDeviation="6" flood-opacity="0.15"/>
    </filter>
    <marker id="arrowGray" markerWidth="8" markerHeight="6" refX="7" refY="3" orient="auto">
      <polygon points="0 0, 8 3, 0 6" fill="#94a3b8"/>
    </marker>
  </defs>

  <rect width="800" height="300" fill="#f8fafc"/>

  <text x="400" y="30" font-family="system-ui, -apple-system, sans-serif" font-size="18" font-weight="600" fill="#0f172a" text-anchor="middle">Sample: Random Document Selection</text>
  <text x="400" y="50" font-family="system-ui, sans-serif" font-size="11" fill="#64748b" text-anchor="middle">Randomly sample documents for diversity, testing, or exploration</text>

  <!-- Input -->
  <g filter="url(#shadow)">
    <rect x="50" y="80" width="180" height="140" rx="10" fill="white" stroke="#e2e8f0" stroke-width="2"/>
    <rect x="50" y="80" width="180" height="28" rx="10" fill="url(#inputGrad)"/>
    <rect x="50" y="98" width="180" height="10" fill="url(#inputGrad)"/>
    <text x="140" y="100" font-family="system-ui, sans-serif" font-size="11" font-weight="600" fill="white" text-anchor="middle">All Results (100)</text>
  </g>
  <g transform="translate(60, 120)">
    <rect x="0" y="0" width="160" height="22" rx="3" fill="#eff6ff"/>
    <text x="80" y="15" font-family="monospace" font-size="8" fill="#475569" text-anchor="middle">Doc 1, Doc 2, Doc 3...</text>
    <rect x="0" y="26" width="160" height="22" rx="3" fill="#eff6ff"/>
    <text x="80" y="41" font-family="monospace" font-size="8" fill="#475569" text-anchor="middle">Doc 4, Doc 5, Doc 6...</text>
    <rect x="0" y="52" width="160" height="22" rx="3" fill="#eff6ff"/>
    <text x="80" y="67" font-family="monospace" font-size="8" fill="#475569" text-anchor="middle">... Doc 98, Doc 99, Doc 100</text>
  </g>

  <path d="M 230 150 L 280 150" stroke="#94a3b8" stroke-width="2" fill="none" marker-end="url(#arrowGray)"/>

  <!-- Sample -->
  <g filter="url(#shadow)">
    <rect x="290" y="80" width="200" height="140" rx="10" fill="white" stroke="#e2e8f0" stroke-width="2"/>
    <rect x="290" y="80" width="200" height="28" rx="10" fill="url(#sampleGrad)"/>
    <rect x="290" y="98" width="200" height="10" fill="url(#sampleGrad)"/>
    <text x="390" y="100" font-family="system-ui, sans-serif" font-size="11" font-weight="600" fill="white" text-anchor="middle">Random Sample</text>
  </g>
  <g transform="translate(300, 120)">
    <rect x="0" y="0" width="180" height="35" rx="4" fill="#fce7f3"/>
    <text x="90" y="14" font-family="monospace" font-size="9" fill="#db2777" text-anchor="middle">sample_size: 10</text>
    <text x="90" y="28" font-family="system-ui, sans-serif" font-size="7" fill="#64748b" text-anchor="middle">Number to randomly select</text>

    <rect x="0" y="42" width="180" height="35" rx="4" fill="#fdf2f8"/>
    <text x="90" y="56" font-family="monospace" font-size="9" fill="#db2777" text-anchor="middle">seed: optional</text>
    <text x="90" y="70" font-family="system-ui, sans-serif" font-size="7" fill="#64748b" text-anchor="middle">For reproducible results</text>
  </g>

  <path d="M 490 150 L 540 150" stroke="#94a3b8" stroke-width="2" fill="none" marker-end="url(#arrowGray)"/>

  <!-- Output -->
  <g filter="url(#shadow)">
    <rect x="550" y="80" width="180" height="140" rx="10" fill="white" stroke="#e2e8f0" stroke-width="2"/>
    <rect x="550" y="80" width="180" height="28" rx="10" fill="url(#outputGrad)"/>
    <rect x="550" y="98" width="180" height="10" fill="url(#outputGrad)"/>
    <text x="640" y="100" font-family="system-ui, sans-serif" font-size="11" font-weight="600" fill="white" text-anchor="middle">Sampled (10)</text>
  </g>
  <g transform="translate(560, 120)">
    <rect x="0" y="0" width="160" height="22" rx="3" fill="#ccfbf1"/>
    <text x="80" y="15" font-family="monospace" font-size="8" fill="#0d9488" text-anchor="middle">Doc 7, Doc 23, Doc 45</text>
    <rect x="0" y="26" width="160" height="22" rx="3" fill="#d1fae5"/>
    <text x="80" y="41" font-family="monospace" font-size="8" fill="#16a34a" text-anchor="middle">Doc 12, Doc 67, Doc 89</text>
    <rect x="0" y="52" width="160" height="22" rx="3" fill="#ecfdf5"/>
    <text x="80" y="67" font-family="monospace" font-size="8" fill="#22c55e" text-anchor="middle">Doc 3, Doc 51, Doc 78...</text>
  </g>

  <!-- Info -->
  <g transform="translate(50, 250)">
    <rect x="0" y="0" width="300" height="30" rx="4" fill="#fce7f3"/>
    <text x="150" y="20" font-family="system-ui, sans-serif" font-size="9" fill="#db2777" text-anchor="middle">Use for: A/B testing, exploration, random diversity</text>

    <rect x="320" y="0" width="280" height="30" rx="4" fill="#ccfbf1"/>
    <text x="460" y="20" font-family="system-ui, sans-serif" font-size="9" fill="#0d9488" text-anchor="middle">Latency: &lt;1ms | Cost: Free | O(n) shuffle</text>
  </g>
</svg>
