<svg viewBox="0 0 1000 350" xmlns="http://www.w3.org/2000/svg">
  <defs>
    <linearGradient id="inputGrad" x1="0%" y1="0%" x2="0%" y2="100%">
      <stop offset="0%" style="stop-color:#3b82f6;stop-opacity:1" />
      <stop offset="100%" style="stop-color:#2563eb;stop-opacity:1" />
    </linearGradient>
    <linearGradient id="sortGrad" x1="0%" y1="0%" x2="0%" y2="100%">
      <stop offset="0%" style="stop-color:#f59e0b;stop-opacity:1" />
      <stop offset="100%" style="stop-color:#d97706;stop-opacity:1" />
    </linearGradient>
    <linearGradient id="outputGrad" x1="0%" y1="0%" x2="0%" y2="100%">
      <stop offset="0%" style="stop-color:#14b8a6;stop-opacity:1" />
      <stop offset="100%" style="stop-color:#0d9488;stop-opacity:1" />
    </linearGradient>
    
    <marker id="arrowGray" markerWidth="8" markerHeight="6" refX="7" refY="3" orient="auto">
      <polygon points="0 0, 8 3, 0 6" fill="#94a3b8"/>
    </marker>
  </defs>

  <rect width="1000" height="350" fill="none"/>

  <text x="500" y="30" font-family="system-ui, -apple-system, sans-serif" font-size="18" font-weight="600" fill="#f1f5f9" text-anchor="middle">Sort By Field Stage: Attribute-Based Ordering</text>
  <text x="500" y="50" font-family="system-ui, sans-serif" font-size="11" fill="#94a3b8" text-anchor="middle">Reorder documents by any metadata field value (price, date, rating, etc.)</text>

  <!-- Input Documents -->
  <g>
    <rect x="30" y="80" width="200" height="160" rx="10" fill="white" stroke="#334155" stroke-width="2"/>
    <rect x="30" y="80" width="200" height="28" rx="10" fill="url(#inputGrad)"/>
    <rect x="30" y="98" width="200" height="10" fill="url(#inputGrad)"/>
    <text x="130" y="100" font-family="system-ui, sans-serif" font-size="11" font-weight="600" fill="white" text-anchor="middle">Input Documents</text>
  </g>
  <g transform="translate(40, 120)">
    <rect x="0" y="0" width="180" height="110" rx="4" fill="#eff6ff"/>
    <text x="90" y="18" font-family="system-ui, sans-serif" font-size="9" font-weight="500" fill="#2563eb" text-anchor="middle">N documents (unsorted)</text>

    <rect x="10" y="28" width="160" height="22" rx="3" fill="#dbeafe"/>
    <text x="90" y="43" font-family="monospace" font-size="8" fill="#475569" text-anchor="middle">[1] price: $299</text>

    <rect x="10" y="54" width="160" height="22" rx="3" fill="#dbeafe"/>
    <text x="90" y="69" font-family="monospace" font-size="8" fill="#475569" text-anchor="middle">[2] price: $99</text>

    <rect x="10" y="80" width="160" height="22" rx="3" fill="#dbeafe"/>
    <text x="90" y="95" font-family="monospace" font-size="8" fill="#475569" text-anchor="middle">[3] price: $499</text>
  </g>

  <path d="M 230 160 L 270 160" stroke="#94a3b8" stroke-width="2" fill="none" marker-end="url(#arrowGray)"/>

  <!-- Sort Configuration -->
  <g>
    <rect x="280" y="70" width="300" height="180" rx="10" fill="white" stroke="#334155" stroke-width="2"/>
    <rect x="280" y="70" width="300" height="28" rx="10" fill="url(#sortGrad)"/>
    <rect x="280" y="88" width="300" height="10" fill="url(#sortGrad)"/>
    <text x="430" y="90" font-family="system-ui, sans-serif" font-size="11" font-weight="600" fill="white" text-anchor="middle">Sort Configuration</text>
  </g>
  <g transform="translate(290, 110)">
    <rect x="0" y="0" width="280" height="40" rx="4" fill="#fef3c7"/>
    <text x="140" y="16" font-family="system-ui, sans-serif" font-size="9" font-weight="600" fill="#d97706" text-anchor="middle">sort_field</text>
    <text x="140" y="32" font-family="monospace" font-size="8" fill="#475569" text-anchor="middle">"metadata.price" | "created_at" | "score"</text>

    <rect x="0" y="50" width="135" height="50" rx="4" fill="#fef3c7"/>
    <text x="67" y="68" font-family="system-ui, sans-serif" font-size="9" font-weight="500" fill="#d97706" text-anchor="middle">order: asc</text>
    <text x="67" y="86" font-family="system-ui, sans-serif" font-size="7" fill="#94a3b8" text-anchor="middle">Lowest first</text>

    <rect x="145" y="50" width="135" height="50" rx="4" fill="#fff7ed"/>
    <text x="212" y="68" font-family="system-ui, sans-serif" font-size="9" font-weight="500" fill="#d97706" text-anchor="middle">order: desc</text>
    <text x="212" y="86" font-family="system-ui, sans-serif" font-size="7" fill="#94a3b8" text-anchor="middle">Highest first</text>

    <text x="140" y="120" font-family="system-ui, sans-serif" font-size="8" fill="#475569" text-anchor="middle">Supports nested fields: metadata.reviews.avg</text>
    <text x="140" y="136" font-family="system-ui, sans-serif" font-size="8" fill="#16a34a" text-anchor="middle">Fast: index-backed when available</text>
  </g>

  <path d="M 580 160 L 620 160" stroke="#94a3b8" stroke-width="2" fill="none" marker-end="url(#arrowGray)"/>

  <!-- Output -->
  <g>
    <rect x="630" y="80" width="200" height="160" rx="10" fill="white" stroke="#334155" stroke-width="2"/>
    <rect x="630" y="80" width="200" height="28" rx="10" fill="url(#outputGrad)"/>
    <rect x="630" y="98" width="200" height="10" fill="url(#outputGrad)"/>
    <text x="730" y="100" font-family="system-ui, sans-serif" font-size="11" font-weight="600" fill="white" text-anchor="middle">Sorted Results</text>
  </g>
  <g transform="translate(640, 120)">
    <rect x="0" y="0" width="180" height="110" rx="4" fill="#ccfbf1"/>
    <text x="90" y="18" font-family="system-ui, sans-serif" font-size="9" font-weight="500" fill="#0d9488" text-anchor="middle">N documents (sorted asc)</text>

    <rect x="10" y="28" width="160" height="22" rx="3" fill="#a7f3d0"/>
    <text x="90" y="43" font-family="monospace" font-size="8" fill="#0d9488" text-anchor="middle">[1] price: $99</text>

    <rect x="10" y="54" width="160" height="22" rx="3" fill="#bbf7d0"/>
    <text x="90" y="69" font-family="monospace" font-size="8" fill="#16a34a" text-anchor="middle">[2] price: $299</text>

    <rect x="10" y="80" width="160" height="22" rx="3" fill="#dcfce7"/>
    <text x="90" y="95" font-family="monospace" font-size="8" fill="#22c55e" text-anchor="middle">[3] price: $499</text>
  </g>

  <!-- Note -->
  <g transform="translate(850, 100)">
    <rect x="0" y="0" width="120" height="140" rx="6" fill="#f0fdf4" stroke="#86efac" stroke-width="1"/>
    <text x="60" y="20" font-family="system-ui, sans-serif" font-size="10" font-weight="600" fill="#16a34a" text-anchor="middle">Features</text>
    <text x="60" y="45" font-family="system-ui, sans-serif" font-size="7" fill="#475569" text-anchor="middle">Any field type</text>
    <text x="60" y="60" font-family="system-ui, sans-serif" font-size="7" fill="#475569" text-anchor="middle">Nested paths</text>
    <text x="60" y="75" font-family="system-ui, sans-serif" font-size="7" fill="#475569" text-anchor="middle">Null handling</text>
    <text x="60" y="90" font-family="system-ui, sans-serif" font-size="7" fill="#475569" text-anchor="middle">Multi-field sort</text>
    <text x="60" y="112" font-family="system-ui, sans-serif" font-size="8" fill="#16a34a" text-anchor="middle">vs rerank:</text>
    <text x="60" y="127" font-family="system-ui, sans-serif" font-size="7" fill="#94a3b8" text-anchor="middle">Simpler, faster</text>
  </g>

  <!-- Use Cases -->
  <g transform="translate(50, 275)">
    <text x="0" y="0" font-family="system-ui, sans-serif" font-size="11" font-weight="600" fill="#475569">Common Use Cases:</text>
    <text x="150" y="0" font-family="system-ui, sans-serif" font-size="10" fill="#94a3b8">Price (asc/desc) | Date (newest first) | Rating (highest first) | Popularity | Distance</text>
  </g>
</svg>