<svg viewBox="0 0 1000 400" xmlns="http://www.w3.org/2000/svg">
  <defs>
    <linearGradient id="docGrad" x1="0%" y1="0%" x2="0%" y2="100%">
      <stop offset="0%" style="stop-color:#3b82f6;stop-opacity:1" />
      <stop offset="100%" style="stop-color:#2563eb;stop-opacity:1" />
    </linearGradient>
    <linearGradient id="sqlGrad" x1="0%" y1="0%" x2="0%" y2="100%">
      <stop offset="0%" style="stop-color:#f97316;stop-opacity:1" />
      <stop offset="100%" style="stop-color:#ea580c;stop-opacity:1" />
    </linearGradient>
    <linearGradient id="dbGrad" x1="0%" y1="0%" x2="0%" y2="100%">
      <stop offset="0%" style="stop-color:#6366f1;stop-opacity:1" />
      <stop offset="100%" style="stop-color:#4f46e5;stop-opacity:1" />
    </linearGradient>
    <linearGradient id="outputGrad" x1="0%" y1="0%" x2="0%" y2="100%">
      <stop offset="0%" style="stop-color:#14b8a6;stop-opacity:1" />
      <stop offset="100%" style="stop-color:#0d9488;stop-opacity:1" />
    </linearGradient>
    <filter id="shadow" x="-20%" y="-20%" width="140%" height="140%">
      <feDropShadow dx="0" dy="4" stdDeviation="6" flood-opacity="0.15"/>
    </filter>
    <marker id="arrowGray" markerWidth="8" markerHeight="6" refX="7" refY="3" orient="auto">
      <polygon points="0 0, 8 3, 0 6" fill="#94a3b8"/>
    </marker>
  </defs>

  <rect width="1000" height="400" fill="#f8fafc"/>

  <text x="500" y="30" font-family="system-ui, -apple-system, sans-serif" font-size="18" font-weight="600" fill="#0f172a" text-anchor="middle">SQL Lookup Stage: Database Enrichment</text>
  <text x="500" y="50" font-family="system-ui, sans-serif" font-size="11" fill="#64748b" text-anchor="middle">Enrich documents with SQL query results from PostgreSQL or Snowflake databases</text>

  <!-- Input Documents -->
  <g filter="url(#shadow)">
    <rect x="30" y="80" width="160" height="130" rx="10" fill="white" stroke="#e2e8f0" stroke-width="2"/>
    <rect x="30" y="80" width="160" height="28" rx="10" fill="url(#docGrad)"/>
    <rect x="30" y="98" width="160" height="10" fill="url(#docGrad)"/>
    <text x="110" y="100" font-family="system-ui, sans-serif" font-size="11" font-weight="600" fill="white" text-anchor="middle">Input Documents</text>
  </g>
  <g transform="translate(40, 120)">
    <rect x="0" y="0" width="140" height="80" rx="4" fill="#eff6ff"/>
    <text x="70" y="18" font-family="system-ui, sans-serif" font-size="9" font-weight="500" fill="#2563eb" text-anchor="middle">N documents</text>
    <text x="70" y="36" font-family="monospace" font-size="8" fill="#475569" text-anchor="middle">document_id</text>
    <text x="70" y="50" font-family="monospace" font-size="8" fill="#475569" text-anchor="middle">metadata.sku: "ABC123"</text>
    <text x="70" y="64" font-family="monospace" font-size="8" fill="#475569" text-anchor="middle">content, score...</text>
  </g>

  <path d="M 190 145 L 230 145" stroke="#94a3b8" stroke-width="2" fill="none" marker-end="url(#arrowGray)"/>

  <!-- SQL Configuration -->
  <g filter="url(#shadow)">
    <rect x="240" y="70" width="220" height="200" rx="10" fill="white" stroke="#e2e8f0" stroke-width="2"/>
    <rect x="240" y="70" width="220" height="28" rx="10" fill="url(#sqlGrad)"/>
    <rect x="240" y="88" width="220" height="10" fill="url(#sqlGrad)"/>
    <text x="350" y="90" font-family="system-ui, sans-serif" font-size="11" font-weight="600" fill="white" text-anchor="middle">SQL Query Configuration</text>
  </g>
  <g transform="translate(250, 110)">
    <rect x="0" y="0" width="200" height="24" rx="3" fill="#fff7ed"/>
    <text x="100" y="16" font-family="monospace" font-size="8" fill="#ea580c" text-anchor="middle">connection_id: "my_postgres"</text>

    <rect x="0" y="30" width="200" height="50" rx="3" fill="#fef3c7"/>
    <text x="100" y="46" font-family="system-ui, sans-serif" font-size="8" font-weight="500" fill="#d97706" text-anchor="middle">SELECT Query</text>
    <text x="100" y="62" font-family="monospace" font-size="7" fill="#475569" text-anchor="middle">SELECT name, price, stock</text>
    <text x="100" y="74" font-family="monospace" font-size="7" fill="#475569" text-anchor="middle">FROM products WHERE sku = $1</text>

    <rect x="0" y="86" width="200" height="30" rx="3" fill="#dcfce7"/>
    <text x="100" y="102" font-family="monospace" font-size="8" fill="#16a34a" text-anchor="middle">params: {"sku": "{{DOC.metadata.sku}}"}</text>

    <rect x="0" y="122" width="95" height="30" rx="3" fill="#eef2ff"/>
    <text x="47" y="142" font-family="monospace" font-size="8" fill="#4338ca" text-anchor="middle">timeout: 30s</text>

    <rect x="105" y="122" width="95" height="30" rx="3" fill="#eef2ff"/>
    <text x="152" y="142" font-family="monospace" font-size="8" fill="#4338ca" text-anchor="middle">result: first</text>
  </g>

  <path d="M 460 145 L 500 145" stroke="#94a3b8" stroke-width="2" fill="none" marker-end="url(#arrowGray)"/>

  <!-- Database -->
  <g filter="url(#shadow)">
    <rect x="510" y="80" width="160" height="130" rx="10" fill="white" stroke="#e2e8f0" stroke-width="2"/>
    <rect x="510" y="80" width="160" height="28" rx="10" fill="url(#dbGrad)"/>
    <rect x="510" y="98" width="160" height="10" fill="url(#dbGrad)"/>
    <text x="590" y="100" font-family="system-ui, sans-serif" font-size="11" font-weight="600" fill="white" text-anchor="middle">External Database</text>
  </g>
  <g transform="translate(520, 120)">
    <rect x="0" y="0" width="140" height="80" rx="4" fill="#eef2ff"/>

    <rect x="10" y="10" width="55" height="24" rx="3" fill="#c7d2fe"/>
    <text x="37" y="26" font-family="system-ui, sans-serif" font-size="8" fill="#4338ca" text-anchor="middle">PostgreSQL</text>

    <rect x="75" y="10" width="55" height="24" rx="3" fill="#c7d2fe"/>
    <text x="102" y="26" font-family="system-ui, sans-serif" font-size="8" fill="#4338ca" text-anchor="middle">Snowflake</text>

    <text x="70" y="52" font-family="system-ui, sans-serif" font-size="8" fill="#475569" text-anchor="middle">Parameterized queries</text>
    <text x="70" y="66" font-family="system-ui, sans-serif" font-size="8" fill="#16a34a" text-anchor="middle">SELECT only (safe)</text>
  </g>

  <path d="M 670 145 L 710 145" stroke="#94a3b8" stroke-width="2" fill="none" marker-end="url(#arrowGray)"/>

  <!-- Output Documents -->
  <g filter="url(#shadow)">
    <rect x="720" y="80" width="180" height="130" rx="10" fill="white" stroke="#e2e8f0" stroke-width="2"/>
    <rect x="720" y="80" width="180" height="28" rx="10" fill="url(#outputGrad)"/>
    <rect x="720" y="98" width="180" height="10" fill="url(#outputGrad)"/>
    <text x="810" y="100" font-family="system-ui, sans-serif" font-size="11" font-weight="600" fill="white" text-anchor="middle">Enriched Documents</text>
  </g>
  <g transform="translate(730, 120)">
    <rect x="0" y="0" width="160" height="80" rx="4" fill="#ccfbf1"/>
    <text x="80" y="18" font-family="system-ui, sans-serif" font-size="9" font-weight="500" fill="#0d9488" text-anchor="middle">N documents</text>
    <text x="80" y="36" font-family="monospace" font-size="8" fill="#475569" text-anchor="middle">+ sql_result:</text>
    <text x="80" y="50" font-family="monospace" font-size="8" fill="#475569" text-anchor="middle">{"name": "Widget"}</text>
    <text x="80" y="64" font-family="monospace" font-size="8" fill="#475569" text-anchor="middle">{"price": 29.99}</text>
  </g>

  <!-- Result Handling & Modes -->
  <g transform="translate(50, 250)">
    <text x="0" y="0" font-family="system-ui, sans-serif" font-size="11" font-weight="600" fill="#475569">Result Handling Options:</text>

    <rect x="0" y="15" width="210" height="50" rx="4" fill="#fff7ed"/>
    <text x="105" y="35" font-family="system-ui, sans-serif" font-size="9" font-weight="500" fill="#ea580c" text-anchor="middle">first (default)</text>
    <text x="105" y="52" font-family="system-ui, sans-serif" font-size="8" fill="#64748b" text-anchor="middle">Return only first row (lookups)</text>

    <rect x="230" y="15" width="210" height="50" rx="4" fill="#f0fdf4"/>
    <text x="335" y="35" font-family="system-ui, sans-serif" font-size="9" font-weight="500" fill="#16a34a" text-anchor="middle">all</text>
    <text x="335" y="52" font-family="system-ui, sans-serif" font-size="8" fill="#64748b" text-anchor="middle">Return all rows as array</text>

    <rect x="460" y="15" width="210" height="50" rx="4" fill="#fef2f2"/>
    <text x="565" y="35" font-family="system-ui, sans-serif" font-size="9" font-weight="500" fill="#dc2626" text-anchor="middle">error_if_empty</text>
    <text x="565" y="52" font-family="system-ui, sans-serif" font-size="8" fill="#64748b" text-anchor="middle">Fail if no results (mandatory data)</text>

    <rect x="690" y="15" width="210" height="50" rx="4" fill="#fce7f3"/>
    <text x="795" y="35" font-family="system-ui, sans-serif" font-size="9" font-weight="500" fill="#db2777" text-anchor="middle">error_if_multiple</text>
    <text x="795" y="52" font-family="system-ui, sans-serif" font-size="8" fill="#64748b" text-anchor="middle">Fail if more than one row</text>
  </g>

  <!-- Security Note -->
  <g transform="translate(50, 330)">
    <rect x="0" y="0" width="900" height="50" rx="6" fill="#dcfce7" stroke="#86efac" stroke-width="1"/>
    <text x="450" y="20" font-family="system-ui, sans-serif" font-size="10" font-weight="600" fill="#16a34a" text-anchor="middle">Security: Only SELECT queries allowed - mutations blocked. Uses parameterized queries to prevent SQL injection.</text>
    <text x="450" y="38" font-family="system-ui, sans-serif" font-size="9" fill="#475569" text-anchor="middle">Transformation: N documents -> N documents (enriched) OR 0 documents -> M documents (query-generated)</text>
  </g>
</svg>