<svg viewBox="0 0 800 300" xmlns="http://www.w3.org/2000/svg">
  <defs>
    <linearGradient id="inputGrad" x1="0%" y1="0%" x2="0%" y2="100%">
      <stop offset="0%" style="stop-color:#3b82f6;stop-opacity:1" />
      <stop offset="100%" style="stop-color:#2563eb;stop-opacity:1" />
    </linearGradient>
    <linearGradient id="unwindGrad" x1="0%" y1="0%" x2="0%" y2="100%">
      <stop offset="0%" style="stop-color:#22c55e;stop-opacity:1" />
      <stop offset="100%" style="stop-color:#16a34a;stop-opacity:1" />
    </linearGradient>
    <linearGradient id="outputGrad" x1="0%" y1="0%" x2="0%" y2="100%">
      <stop offset="0%" style="stop-color:#14b8a6;stop-opacity:1" />
      <stop offset="100%" style="stop-color:#0d9488;stop-opacity:1" />
    </linearGradient>
    
    <marker id="arrowGray" markerWidth="8" markerHeight="6" refX="7" refY="3" orient="auto">
      <polygon points="0 0, 8 3, 0 6" fill="#94a3b8"/>
    </marker>
  </defs>

  <rect width="800" height="300" fill="none"/>

  <text x="400" y="30" font-family="system-ui, -apple-system, sans-serif" font-size="18" font-weight="600" fill="#f1f5f9" text-anchor="middle">Unwind: Array Decomposition</text>
  <text x="400" y="50" font-family="system-ui, sans-serif" font-size="11" fill="#94a3b8" text-anchor="middle">Decompose array fields into separate documents (1→N expansion)</text>

  <!-- Input -->
  <g>
    <rect x="50" y="80" width="180" height="140" rx="10" fill="white" stroke="#334155" stroke-width="2"/>
    <rect x="50" y="80" width="180" height="28" rx="10" fill="url(#inputGrad)"/>
    <rect x="50" y="98" width="180" height="10" fill="url(#inputGrad)"/>
    <text x="140" y="100" font-family="system-ui, sans-serif" font-size="11" font-weight="600" fill="white" text-anchor="middle">Input (2 docs)</text>
  </g>
  <g transform="translate(60, 120)">
    <rect x="0" y="0" width="160" height="40" rx="3" fill="#eff6ff"/>
    <text x="80" y="14" font-family="monospace" font-size="8" fill="#2563eb" text-anchor="middle">Doc A</text>
    <text x="80" y="30" font-family="monospace" font-size="7" fill="#475569" text-anchor="middle">tags: ["ml", "ai", "python"]</text>
    <rect x="0" y="46" width="160" height="40" rx="3" fill="#eff6ff"/>
    <text x="80" y="60" font-family="monospace" font-size="8" fill="#2563eb" text-anchor="middle">Doc B</text>
    <text x="80" y="76" font-family="monospace" font-size="7" fill="#475569" text-anchor="middle">tags: ["web", "js"]</text>
  </g>

  <path d="M 230 150 L 280 150" stroke="#94a3b8" stroke-width="2" fill="none" marker-end="url(#arrowGray)"/>

  <!-- Unwind -->
  <g>
    <rect x="290" y="80" width="200" height="140" rx="10" fill="white" stroke="#334155" stroke-width="2"/>
    <rect x="290" y="80" width="200" height="28" rx="10" fill="url(#unwindGrad)"/>
    <rect x="290" y="98" width="200" height="10" fill="url(#unwindGrad)"/>
    <text x="390" y="100" font-family="system-ui, sans-serif" font-size="11" font-weight="600" fill="white" text-anchor="middle">Unwind Array</text>
  </g>
  <g transform="translate(300, 120)">
    <rect x="0" y="0" width="180" height="35" rx="4" fill="#dcfce7"/>
    <text x="90" y="14" font-family="monospace" font-size="9" fill="#16a34a" text-anchor="middle">field: "tags"</text>
    <text x="90" y="28" font-family="system-ui, sans-serif" font-size="7" fill="#94a3b8" text-anchor="middle">Path to array field to unwind</text>

    <rect x="0" y="42" width="180" height="35" rx="4" fill="#f0fdf4"/>
    <text x="90" y="56" font-family="monospace" font-size="9" fill="#16a34a" text-anchor="middle">preserve_null: false</text>
    <text x="90" y="70" font-family="system-ui, sans-serif" font-size="7" fill="#94a3b8" text-anchor="middle">Drop docs with missing arrays</text>
  </g>

  <path d="M 490 150 L 540 150" stroke="#94a3b8" stroke-width="2" fill="none" marker-end="url(#arrowGray)"/>

  <!-- Output -->
  <g>
    <rect x="550" y="70" width="200" height="170" rx="10" fill="white" stroke="#334155" stroke-width="2"/>
    <rect x="550" y="70" width="200" height="28" rx="10" fill="url(#outputGrad)"/>
    <rect x="550" y="88" width="200" height="10" fill="url(#outputGrad)"/>
    <text x="650" y="90" font-family="system-ui, sans-serif" font-size="11" font-weight="600" fill="white" text-anchor="middle">Output (5 docs)</text>
  </g>
  <g transform="translate(560, 105)">
    <rect x="0" y="0" width="180" height="18" rx="3" fill="#ccfbf1"/>
    <text x="90" y="13" font-family="monospace" font-size="7" fill="#0d9488" text-anchor="middle">Doc A → tags: "ml"</text>
    <rect x="0" y="22" width="180" height="18" rx="3" fill="#d1fae5"/>
    <text x="90" y="35" font-family="monospace" font-size="7" fill="#16a34a" text-anchor="middle">Doc A → tags: "ai"</text>
    <rect x="0" y="44" width="180" height="18" rx="3" fill="#ecfdf5"/>
    <text x="90" y="57" font-family="monospace" font-size="7" fill="#22c55e" text-anchor="middle">Doc A → tags: "python"</text>
    <rect x="0" y="66" width="180" height="18" rx="3" fill="#ccfbf1"/>
    <text x="90" y="79" font-family="monospace" font-size="7" fill="#0d9488" text-anchor="middle">Doc B → tags: "web"</text>
    <rect x="0" y="88" width="180" height="18" rx="3" fill="#d1fae5"/>
    <text x="90" y="101" font-family="monospace" font-size="7" fill="#16a34a" text-anchor="middle">Doc B → tags: "js"</text>
  </g>

  <!-- Info -->
  <g transform="translate(50, 260)">
    <rect x="0" y="0" width="320" height="30" rx="4" fill="#dcfce7"/>
    <text x="160" y="20" font-family="system-ui, sans-serif" font-size="9" fill="#16a34a" text-anchor="middle">Use for: Tag expansion, segment decomposition, author attribution</text>

    <rect x="340" y="0" width="280" height="30" rx="4" fill="#ccfbf1"/>
    <text x="480" y="20" font-family="system-ui, sans-serif" font-size="9" fill="#0d9488" text-anchor="middle">Latency: &lt;5ms | Cost: Free | O(total elements)</text>
  </g>
</svg>
