<svg viewBox="0 0 1200 550" xmlns="http://www.w3.org/2000/svg">
  <defs>
    <linearGradient id="videoGrad" x1="0%" y1="0%" x2="0%" y2="100%">
      <stop offset="0%" style="stop-color:#6366f1;stop-opacity:1" />
      <stop offset="100%" style="stop-color:#4f46e5;stop-opacity:1" />
    </linearGradient>
    <linearGradient id="sceneGrad" x1="0%" y1="0%" x2="0%" y2="100%">
      <stop offset="0%" style="stop-color:#f97316;stop-opacity:1" />
      <stop offset="100%" style="stop-color:#ea580c;stop-opacity:1" />
    </linearGradient>
    <linearGradient id="faceGrad" x1="0%" y1="0%" x2="0%" y2="100%">
      <stop offset="0%" style="stop-color:#10b981;stop-opacity:1" />
      <stop offset="100%" style="stop-color:#059669;stop-opacity:1" />
    </linearGradient>
    <linearGradient id="exprGrad" x1="0%" y1="0%" x2="0%" y2="100%">
      <stop offset="0%" style="stop-color:#8b5cf6;stop-opacity:1" />
      <stop offset="100%" style="stop-color:#7c3aed;stop-opacity:1" />
    </linearGradient>
    <filter id="shadow" x="-20%" y="-20%" width="140%" height="140%">
      <feDropShadow dx="0" dy="4" stdDeviation="6" flood-opacity="0.15"/>
    </filter>
  </defs>

  <!-- Background -->
  <rect width="1200" height="550" fill="#f8fafc"/>
  
  <!-- Title -->
  <text x="600" y="40" font-family="system-ui, -apple-system, sans-serif" font-size="24" font-weight="600" fill="#0f172a" text-anchor="middle">Object Decomposition</text>

  <!-- Level Labels on left side -->
  <text x="20" y="105" font-family="system-ui, sans-serif" font-size="12" fill="#64748b" font-weight="500">Object</text>
  <text x="20" y="205" font-family="system-ui, sans-serif" font-size="12" fill="#64748b" font-weight="500">Scene Extractor</text>
  <text x="20" y="305" font-family="system-ui, sans-serif" font-size="12" fill="#64748b" font-weight="500">Entity Extractor</text>
  <text x="20" y="405" font-family="system-ui, sans-serif" font-size="12" fill="#64748b" font-weight="500">Expression Extractor</text>

  <!-- Level 1: Video (1 item) -->
  <g filter="url(#shadow)">
    <rect x="500" y="70" width="200" height="60" rx="10" fill="white" stroke="#e2e8f0" stroke-width="2"/>
    <rect x="500" y="70" width="200" height="60" rx="10" fill="url(#videoGrad)"/>
    <text x="600" y="107" font-family="system-ui, sans-serif" font-size="16" font-weight="600" fill="white" text-anchor="middle">Video</text>
  </g>
  
  <!-- Connector lines from Video to Scenes -->
  <line x1="550" y1="130" x2="350" y2="170" stroke="#94a3b8" stroke-width="2"/>
  <line x1="600" y1="130" x2="600" y2="170" stroke="#94a3b8" stroke-width="2"/>
  <line x1="650" y1="130" x2="850" y2="170" stroke="#94a3b8" stroke-width="2"/>

  <!-- Level 2: Scenes (3 items) -->
  <g filter="url(#shadow)">
    <rect x="250" y="170" width="200" height="60" rx="10" fill="white" stroke="#e2e8f0" stroke-width="2"/>
    <rect x="250" y="170" width="200" height="60" rx="10" fill="url(#sceneGrad)"/>
    <text x="350" y="207" font-family="system-ui, sans-serif" font-size="14" font-weight="600" fill="white" text-anchor="middle">Scene 1</text>
  </g>
  <g filter="url(#shadow)">
    <rect x="500" y="170" width="200" height="60" rx="10" fill="white" stroke="#e2e8f0" stroke-width="2"/>
    <rect x="500" y="170" width="200" height="60" rx="10" fill="url(#sceneGrad)"/>
    <text x="600" y="207" font-family="system-ui, sans-serif" font-size="14" font-weight="600" fill="white" text-anchor="middle">Scene 2</text>
  </g>
  <g filter="url(#shadow)">
    <rect x="750" y="170" width="200" height="60" rx="10" fill="white" stroke="#e2e8f0" stroke-width="2"/>
    <rect x="750" y="170" width="200" height="60" rx="10" fill="url(#sceneGrad)"/>
    <text x="850" y="207" font-family="system-ui, sans-serif" font-size="14" font-weight="600" fill="white" text-anchor="middle">Scene 3</text>
  </g>

  <!-- Connector lines from Scenes to Faces -->
  <line x1="300" y1="230" x2="245" y2="270" stroke="#94a3b8" stroke-width="2"/>
  <line x1="400" y1="230" x2="385" y2="270" stroke="#94a3b8" stroke-width="2"/>
  
  <line x1="550" y1="230" x2="525" y2="270" stroke="#94a3b8" stroke-width="2"/>
  <line x1="650" y1="230" x2="665" y2="270" stroke="#94a3b8" stroke-width="2"/>
  
  <line x1="800" y1="230" x2="805" y2="270" stroke="#94a3b8" stroke-width="2"/>
  <line x1="900" y1="230" x2="945" y2="270" stroke="#94a3b8" stroke-width="2"/>

  <!-- Level 3: Faces (6 items) -->
  <g filter="url(#shadow)">
    <rect x="200" y="270" width="90" height="50" rx="8" fill="white" stroke="#e2e8f0" stroke-width="2"/>
    <rect x="200" y="270" width="90" height="50" rx="8" fill="url(#faceGrad)"/>
    <text x="245" y="301" font-family="system-ui, sans-serif" font-size="12" font-weight="600" fill="white" text-anchor="middle">Face A</text>
  </g>
  <g filter="url(#shadow)">
    <rect x="340" y="270" width="90" height="50" rx="8" fill="white" stroke="#e2e8f0" stroke-width="2"/>
    <rect x="340" y="270" width="90" height="50" rx="8" fill="url(#faceGrad)"/>
    <text x="385" y="301" font-family="system-ui, sans-serif" font-size="12" font-weight="600" fill="white" text-anchor="middle">Face B</text>
  </g>
  
  <g filter="url(#shadow)">
    <rect x="480" y="270" width="90" height="50" rx="8" fill="white" stroke="#e2e8f0" stroke-width="2"/>
    <rect x="480" y="270" width="90" height="50" rx="8" fill="url(#faceGrad)"/>
    <text x="525" y="301" font-family="system-ui, sans-serif" font-size="12" font-weight="600" fill="white" text-anchor="middle">Face A</text>
  </g>
  <g filter="url(#shadow)">
    <rect x="620" y="270" width="90" height="50" rx="8" fill="white" stroke="#e2e8f0" stroke-width="2"/>
    <rect x="620" y="270" width="90" height="50" rx="8" fill="url(#faceGrad)"/>
    <text x="665" y="301" font-family="system-ui, sans-serif" font-size="12" font-weight="500" fill="white" text-anchor="middle">Face C</text>
  </g>
  
  <g filter="url(#shadow)">
    <rect x="760" y="270" width="90" height="50" rx="8" fill="white" stroke="#e2e8f0" stroke-width="2"/>
    <rect x="760" y="270" width="90" height="50" rx="8" fill="url(#faceGrad)"/>
    <text x="805" y="301" font-family="system-ui, sans-serif" font-size="12" font-weight="600" fill="white" text-anchor="middle">Face B</text>
  </g>
  <g filter="url(#shadow)">
    <rect x="900" y="270" width="90" height="50" rx="8" fill="white" stroke="#e2e8f0" stroke-width="2"/>
    <rect x="900" y="270" width="90" height="50" rx="8" fill="url(#faceGrad)"/>
    <text x="945" y="301" font-family="system-ui, sans-serif" font-size="12" font-weight="600" fill="white" text-anchor="middle">Face D</text>
  </g>

  <!-- Connector lines from Faces to Expressions -->
  <line x1="225" y1="320" x2="210" y2="370" stroke="#94a3b8" stroke-width="1.5"/>
  <line x1="265" y1="320" x2="280" y2="370" stroke="#94a3b8" stroke-width="1.5"/>
  
  <line x1="365" y1="320" x2="350" y2="370" stroke="#94a3b8" stroke-width="1.5"/>
  <line x1="405" y1="320" x2="420" y2="370" stroke="#94a3b8" stroke-width="1.5"/>
  
  <line x1="505" y1="320" x2="490" y2="370" stroke="#94a3b8" stroke-width="1.5"/>
  <line x1="545" y1="320" x2="560" y2="370" stroke="#94a3b8" stroke-width="1.5"/>
  
  <line x1="645" y1="320" x2="630" y2="370" stroke="#94a3b8" stroke-width="1.5"/>
  <line x1="685" y1="320" x2="700" y2="370" stroke="#94a3b8" stroke-width="1.5"/>
  
  <line x1="785" y1="320" x2="770" y2="370" stroke="#94a3b8" stroke-width="1.5"/>
  <line x1="825" y1="320" x2="840" y2="370" stroke="#94a3b8" stroke-width="1.5"/>
  
  <line x1="925" y1="320" x2="910" y2="370" stroke="#94a3b8" stroke-width="1.5"/>
  <line x1="965" y1="320" x2="980" y2="370" stroke="#94a3b8" stroke-width="1.5"/>

  <!-- Level 4: Expressions (12 items) -->
  <g filter="url(#shadow)">
    <rect x="180" y="370" width="60" height="40" rx="6" fill="#f5f3ff" stroke="#ddd6fe" stroke-width="1.5"/>
    <text x="210" y="395" font-family="system-ui, sans-serif" font-size="10" font-weight="500" fill="#6d28d9" text-anchor="middle">Happy</text>
  </g>
  <g filter="url(#shadow)">
    <rect x="250" y="370" width="60" height="40" rx="6" fill="#f5f3ff" stroke="#ddd6fe" stroke-width="1.5"/>
    <text x="280" y="395" font-family="system-ui, sans-serif" font-size="10" font-weight="500" fill="#6d28d9" text-anchor="middle">Neutral</text>
  </g>
  
  <g filter="url(#shadow)">
    <rect x="320" y="370" width="60" height="40" rx="6" fill="#f5f3ff" stroke="#ddd6fe" stroke-width="1.5"/>
    <text x="350" y="395" font-family="system-ui, sans-serif" font-size="10" font-weight="500" fill="#6d28d9" text-anchor="middle">Smile</text>
  </g>
  <g filter="url(#shadow)">
    <rect x="390" y="370" width="60" height="40" rx="6" fill="#f5f3ff" stroke="#ddd6fe" stroke-width="1.5"/>
    <text x="420" y="395" font-family="system-ui, sans-serif" font-size="10" font-weight="500" fill="#6d28d9" text-anchor="middle">Surprise</text>
  </g>
  
  <g filter="url(#shadow)">
    <rect x="460" y="370" width="60" height="40" rx="6" fill="#f5f3ff" stroke="#ddd6fe" stroke-width="1.5"/>
    <text x="490" y="395" font-family="system-ui, sans-serif" font-size="10" font-weight="500" fill="#6d28d9" text-anchor="middle">Focus</text>
  </g>
  <g filter="url(#shadow)">
    <rect x="530" y="370" width="60" height="40" rx="6" fill="#f5f3ff" stroke="#ddd6fe" stroke-width="1.5"/>
    <text x="560" y="395" font-family="system-ui, sans-serif" font-size="10" font-weight="500" fill="#6d28d9" text-anchor="middle">Neutral</text>
  </g>
  
  <g filter="url(#shadow)">
    <rect x="600" y="370" width="60" height="40" rx="6" fill="#f5f3ff" stroke="#ddd6fe" stroke-width="1.5"/>
    <text x="630" y="395" font-family="system-ui, sans-serif" font-size="10" font-weight="500" fill="#6d28d9" text-anchor="middle">Sad</text>
  </g>
  <g filter="url(#shadow)">
    <rect x="670" y="370" width="60" height="40" rx="6" fill="#f5f3ff" stroke="#ddd6fe" stroke-width="1.5"/>
    <text x="700" y="395" font-family="system-ui, sans-serif" font-size="10" font-weight="500" fill="#6d28d9" text-anchor="middle">Angry</text>
  </g>
  
  <g filter="url(#shadow)">
    <rect x="740" y="370" width="60" height="40" rx="6" fill="#f5f3ff" stroke="#ddd6fe" stroke-width="1.5"/>
    <text x="770" y="395" font-family="system-ui, sans-serif" font-size="10" font-weight="500" fill="#6d28d9" text-anchor="middle">Laugh</text>
  </g>
  <g filter="url(#shadow)">
    <rect x="810" y="370" width="60" height="40" rx="6" fill="#f5f3ff" stroke="#ddd6fe" stroke-width="1.5"/>
    <text x="840" y="395" font-family="system-ui, sans-serif" font-size="10" font-weight="500" fill="#6d28d9" text-anchor="middle">Smile</text>
  </g>
  
  <g filter="url(#shadow)">
    <rect x="880" y="370" width="60" height="40" rx="6" fill="#f5f3ff" stroke="#ddd6fe" stroke-width="1.5"/>
    <text x="910" y="395" font-family="system-ui, sans-serif" font-size="10" font-weight="500" fill="#6d28d9" text-anchor="middle">Neutral</text>
  </g>
  <g filter="url(#shadow)">
    <rect x="950" y="370" width="60" height="40" rx="6" fill="#f5f3ff" stroke="#ddd6fe" stroke-width="1.5"/>
    <text x="980" y="395" font-family="system-ui, sans-serif" font-size="10" font-weight="500" fill="#6d28d9" text-anchor="middle">Focus</text>
  </g>

  <!-- Legend -->
  <g transform="translate(300, 480)">
    <rect width="12" height="12" rx="2" fill="url(#videoGrad)"/>
    <text x="20" y="11" font-family="system-ui, sans-serif" font-size="11" fill="#475569">Source Object</text>
    
    <rect x="130" width="12" height="12" rx="2" fill="url(#sceneGrad)"/>
    <text x="150" y="11" font-family="system-ui, sans-serif" font-size="11" fill="#475569">Temporal Segments</text>
    
    <rect x="290" width="12" height="12" rx="2" fill="url(#faceGrad)"/>
    <text x="310" y="11" font-family="system-ui, sans-serif" font-size="11" fill="#475569">Detected Entities</text>
    
    <rect x="430" width="12" height="12" rx="2" fill="url(#exprGrad)"/>
    <text x="450" y="11" font-family="system-ui, sans-serif" font-size="11" fill="#475569">Extracted Features</text>
  </g>

</svg>
